<svg xmlns="http://www.w3.org/2000/svg" width="30" height="30" fill="none" viewBox="0 0 30 30">
  <path fill="#8d0e33" d="M15 22.188c1.625 0 3.02-.584 4.188-1.75 1.166-1.167 1.75-2.563 1.75-4.188 0-1.625-.584-3.02-1.75-4.188-1.167-1.166-2.563-1.75-4.188-1.75a5.62 5.62 0 0 0-2.219.438 6.358 6.358 0 0 0-1.844 1.188V10H9.063v5.313h5.312v-1.876h-2.25a4.077 4.077 0 0 1 1.281-.906A3.78 3.78 0 0 1 15 12.187c1.125 0 2.083.396 2.875 1.188.792.792 1.188 1.75 1.188 2.875s-.396 2.083-1.188 2.875c-.792.792-1.75 1.188-2.875 1.188-.917 0-1.719-.266-2.406-.798a4.366 4.366 0 0 1-1.469-2.015H9.187a5.834 5.834 0 0 0 2.048 3.36c1.073.886 2.328 1.328 3.765 1.328ZM5 27.5v-25h12.5L25 10v17.5H5Z"/>
</svg>
